<svg width="256" height="309" viewBox="0 0 256 309" fill="none" xmlns="http://www.w3.org/2000/svg">
<path d="M161.2 74.5601C158.12 74.5601 157.13 75.4901 155.42 76.6201C129.3 94.6601 101.59 107.17 67.7902 112.72C63.1402 113.48 58.3302 114.24 53.7502 115.31C47.9202 123.19 46.0802 131.94 47.1502 143.74C57.4202 136.89 65.0202 135.31 79.1202 135.99L79.4602 136.55C63.0702 141.82 52.5202 148.74 42.2502 157.63C28.6302 169.86 18.1502 185.71 19.7302 209.19C24.2402 206.25 29.0502 206.18 32.9502 206.18C44.2002 206.18 54.6802 213.92 54.6802 223.61C54.6802 234.72 47.7202 241.13 39.3902 241.13C32.0602 241.13 28.9802 235.93 28.9802 233.68C28.9802 231.15 30.2502 227.87 31.0002 227.87C32.9202 227.87 33.7402 233.61 39.7402 233.61C45.8702 233.61 47.3202 228.14 47.3202 225.34C47.3202 218.86 40.1202 213.73 33.0202 213.73C20.0702 213.73 9.45018 226.81 8.76018 239.96C7.94018 255.03 15.1702 271.88 35.9302 276.62C38.6602 277.31 40.9802 277.72 43.2302 277.86C42.7502 265.77 47.9202 256.74 57.3502 252.91C51.2202 261.22 49.7702 266.83 49.7702 272.78C49.7702 286.07 61.7202 299.78 79.7402 299.78C96.2002 299.78 108.15 291.16 115.75 276.42C113.23 276.97 110.98 277.11 108.12 277.11C92.6902 277.11 80.9402 265.08 80.9402 253.05C80.9402 241.16 89.9402 231.28 101.32 231.28C108.92 231.28 116.15 237.37 116.15 243.52C116.15 246.12 114.38 249.54 112.74 249.54C110.29 249.54 111.25 239.86 101.52 239.86C93.7902 239.86 88.7602 246.2 88.7602 252.88C88.7602 263.86 97.6202 269.67 108.17 269.67C122.72 269.67 138.76 257.31 138.76 238.82C138.76 223.14 129.76 212.43 120.76 202.22C111.76 192.01 102.17 183.52 102.17 167.71C102.17 158.31 107.67 146.42 113.3 144.64C116.63 153.06 121.73 155.86 130.73 155.86C142.93 155.86 151.47 144.68 151.47 134.47C151.47 130.91 150.65 128.87 150.65 126.07C150.65 115.03 159.39 106.07 170.5 106.07C179.43 106.07 184.86 112.51 184.86 118.46C184.86 121.95 182.07 125.65 181.04 125.65C179.19 125.65 179.74 113.96 171.27 113.96C163.88 113.96 159.37 120.05 159.37 126.14C159.37 136.14 168.86 143.95 179.19 143.95C193.22 143.95 206.98 132.06 207.39 114.75C208.08 94.8701 191.17 74.5601 161.2 74.5601Z" fill="#D4708A"/>
<path d="M239.2 175.7C219.42 173.51 190.94 171.12 189.91 150.39L189.64 149.63C185.74 150.96 183.75 151.58 179.24 151.58C171.54 151.58 163.94 147.75 159.71 144.61C155.74 155.69 146.01 163.64 132.53 163.64C123.6 163.64 117 160.85 112.42 155.69C109.83 158.97 109.35 163.36 109.35 166.23C109.35 177.92 117.34 186.74 126.14 196.81C136.27 208.43 146.36 220.53 146.36 238.95C146.36 253.82 136.94 268.63 123.74 275.07C134.92 282.13 150.42 284.38 158.75 284.04C164.21 283.83 168.65 283.21 172.48 282.07C166.02 269.06 163.36 259.02 163.36 251.11C163.36 239.42 171.55 230.53 186.17 230.05C204.12 229.43 217.14 226.04 224.4 220.67C235.44 212.58 241.9 200.14 247 188.45C248.92 182.49 246.13 176.54 239.2 175.7ZM169.38 176.95C163.35 177.36 160.52 172.89 160.52 168.89C160.52 163.87 164.35 161.07 168.18 161.07C174.14 161.07 176.87 165.6 176.87 169.37C176.87 173.5 173.97 176.67 169.38 176.95Z" fill="#D4708A"/>
<path d="M153.9 8.42012L132.25 44.9201C127.15 52.9401 123.88 55.1201 120.11 55.1201C114.15 55.1201 108.51 49.1001 99.65 38.8901L73.91 7.87012L73.77 57.6301C73.77 68.2701 71.11 76.7601 62.64 76.7601C55.18 76.7601 44.91 73.4801 38.45 70.9501L13.5 62.1001L52.22 108.18C89.15 105.31 123.01 92.9501 153.82 69.1301L153.89 8.42012H153.9Z" fill="#C9B856"/>
<path d="M118.7 18.6299L129.68 41.6199C126.41 47.6399 123.15 50.9199 120.7 50.9199C118.11 50.9199 114.58 48.1899 110.21 44.1199L118.7 18.6299Z" fill="#C9B856"/>
<path d="M47.4102 47.71L68.7202 61.55C69.8202 62.24 70.0302 62.72 69.8202 64.23C68.7202 71.16 67.1502 73.62 63.1102 73.62C60.4502 73.62 57.1902 72.93 53.3602 71.71L47.4102 47.71Z" fill="#C9B856"/>
<path d="M91.4099 56.1099L106.1 67.1599L102.84 85.9899L87.3398 74.9399L91.4099 56.1099Z" fill="#D4708A"/>
</svg>
